<mxfile host="Electron" modified="2023-12-06T15:05:08.466Z" agent="Mozilla/5.0 (Windows NT 10.0; Win64; x64) AppleWebKit/537.36 (KHTML, like Gecko) draw.io/22.1.2 Chrome/114.0.5735.289 Electron/25.9.4 Safari/537.36" etag="B9ikcEsDwYxTs6xpK6vw" version="22.1.2" type="device">
  <diagram name="Page-1" id="--uR05niXnDwy6gTluFN">
    <mxGraphModel dx="1036" dy="614" grid="1" gridSize="10" guides="1" tooltips="1" connect="1" arrows="1" fold="1" page="1" pageScale="1" pageWidth="850" pageHeight="1100" math="0" shadow="0">
      <root>
        <mxCell id="0" />
        <mxCell id="1" parent="0" />
        <mxCell id="avC5ouKjnPCCNlFb_Iso-1" value="" style="rounded=0;whiteSpace=wrap;html=1;align=center;" parent="1" vertex="1">
          <mxGeometry x="140" y="100" width="600" height="440" as="geometry" />
        </mxCell>
        <mxCell id="avC5ouKjnPCCNlFb_Iso-2" value="BRANDING&lt;br&gt;(0, 0)" style="rounded=0;whiteSpace=wrap;html=1;" parent="1" vertex="1">
          <mxGeometry x="140" y="100" width="120" height="60" as="geometry" />
        </mxCell>
        <mxCell id="avC5ouKjnPCCNlFb_Iso-3" value="SIDEBAR&lt;br&gt;(1, 0)" style="rounded=0;whiteSpace=wrap;html=1;verticalAlign=top;" parent="1" vertex="1">
          <mxGeometry x="140" y="160" width="120" height="380" as="geometry" />
        </mxCell>
        <mxCell id="avC5ouKjnPCCNlFb_Iso-11" value="HOME" style="rounded=1;whiteSpace=wrap;html=1;" parent="1" vertex="1">
          <mxGeometry x="165" y="220" width="70" height="30" as="geometry" />
        </mxCell>
        <mxCell id="avC5ouKjnPCCNlFb_Iso-12" value="PDF Ninja" style="rounded=1;whiteSpace=wrap;html=1;" parent="1" vertex="1">
          <mxGeometry x="165" y="280" width="70" height="30" as="geometry" />
        </mxCell>
        <mxCell id="avC5ouKjnPCCNlFb_Iso-13" value="STATUS | INFO | USER-INPUT&lt;br&gt;(0, 1)" style="rounded=0;whiteSpace=wrap;html=1;" parent="1" vertex="1">
          <mxGeometry x="260" y="100" width="480" height="60" as="geometry" />
        </mxCell>
        <mxCell id="avC5ouKjnPCCNlFb_Iso-14" value="APP&lt;br&gt;(1, 1)," style="rounded=0;whiteSpace=wrap;html=1;" parent="1" vertex="1">
          <mxGeometry x="260" y="160" width="480" height="380" as="geometry" />
        </mxCell>
      </root>
    </mxGraphModel>
  </diagram>
</mxfile>
